<svg id="Layer_1" data-name="Layer 1" xmlns="http://www.w3.org/2000/svg" viewBox="0 0 247.12 200.27"><defs><style>.cls-1{fill:#0e3072;}.cls-2{fill:#487afc;}</style></defs><path class="cls-1" d="M175.57,486.53Z" transform="translate(-175.54 -286.26)"/><path class="cls-1" d="M326.79,448.13l18.59,27.57a5.19,5.19,0,0,0,4.29,2.28h22.42a5.18,5.18,0,0,0,4.29-8.07L341.9,418.79a5.16,5.16,0,0,1,0-5.78l34.48-51.12a5.18,5.18,0,0,0-4.29-8.07H349.67a5.16,5.16,0,0,0-4.29,2.28l-18.59,27.56a5.18,5.18,0,0,1-8.58,0l-18.6-27.57a5.19,5.19,0,0,0-4.29-2.28H272.9a5.17,5.17,0,0,0-4.28,8.07L303.1,413a5.18,5.18,0,0,1,0,5.79l-18.19,26.95a5.17,5.17,0,0,1-8.57,0L215.87,356.1a5.19,5.19,0,0,0-4.29-2.28h-22a5.17,5.17,0,0,0-5.17,5.18V472.81A5.17,5.17,0,0,0,189.6,478h19.56a5.18,5.18,0,0,0,5.17-5.17V422.49a5.17,5.17,0,0,1,9.46-2.9l37.85,56.11a5.19,5.19,0,0,0,4.29,2.28h29.39a5.19,5.19,0,0,0,4.29-2.28l18.6-27.57A5.18,5.18,0,0,1,326.79,448.13Z" transform="translate(-175.54 -286.26)"/><path class="cls-2" d="M420.08,353.76l-33.55.06a2.51,2.51,0,0,1-2.08-3.9l24.73-36.66a10.13,10.13,0,0,0,1.95-3.49,11.71,11.71,0,0,0,.44-3.1,9.84,9.84,0,0,0-2.44-6.35,8.05,8.05,0,0,0-6.23-2.92,9.84,9.84,0,0,0-5.3,1.35,8.67,8.67,0,0,0-3.73,4.23,13.65,13.65,0,0,0-.9,3.93.48.48,0,0,1-.17.39.64.64,0,0,1-.42.15h-10a.52.52,0,0,1-.59-.58,20.37,20.37,0,0,1,5.91-14.6,19,19,0,0,1,14.06-6,20.27,20.27,0,0,1,14.9,6.05h-.05a19.74,19.74,0,0,1,6,14.46s0,5.48-1.08,7.08l-16.85,24.91a2.51,2.51,0,0,0,2.07,3.91h13.29a2.5,2.5,0,0,1,2.5,2.5v6.08A2.52,2.52,0,0,1,420.08,353.76Z" transform="translate(-175.54 -286.26)"/></svg>